<svg xmlns="http://www.w3.org/2000/svg" width="29.485" height="29.485" viewBox="0 0 29.485 29.485">
  <g id="whatsapp" transform="translate(0 0)">
    <path id="Контур_10" data-name="Контур 10" d="M0,14.742A14.742,14.742,0,1,0,14.742,0,14.742,14.742,0,0,0,0,14.742Zm23.994-.564a8.78,8.78,0,0,1-8.766,8.766h0a8.759,8.759,0,0,1-4.189-1.067L6.388,23.1l1.244-4.543a8.768,8.768,0,1,1,16.362-4.376Z" transform="translate(0 0)" fill="#c8c8c8" fill-rule="evenodd"/>
    <path id="Контур_11" data-name="Контур 11" d="M13.48,25.338l2.758-.723.266.158a7.276,7.276,0,0,0,3.708,1.016h0a7.287,7.287,0,1,0-6.172-3.415l.173.276ZM24.332,20.39a.708.708,0,0,1,.3.2,1.832,1.832,0,0,1-.128,1.042,2.256,2.256,0,0,1-1.479,1.041,3,3,0,0,1-1.38-.087,12.579,12.579,0,0,1-1.249-.461,9.648,9.648,0,0,1-3.7-3.253l-.038-.054,0,0a4.256,4.256,0,0,1-.893-2.264,2.426,2.426,0,0,1,.724-1.781l.043-.046a.8.8,0,0,1,.584-.274c.146,0,.292,0,.42.008h.049c.128,0,.287,0,.444.375.06.145.149.36.242.587.188.459.4.966.433,1.039a.4.4,0,0,1,.018.384l-.031.062a1.243,1.243,0,0,1-.188.3c-.037.043-.074.089-.112.135-.075.092-.151.184-.216.249-.11.109-.224.228-.1.447a6.6,6.6,0,0,0,1.219,1.517,5.658,5.658,0,0,0,1.617,1.022c.06.026.109.047.145.065.219.11.347.091.475-.055s.548-.64.694-.859.292-.183.493-.11,1.278.6,1.5.713Z" transform="translate(-4.987 -4.324)" fill="#c8c8c8" fill-rule="evenodd"/>
  </g>
</svg>
