<svg xmlns="http://www.w3.org/2000/svg" width="26.298" height="30.519" viewBox="0 0 26.298 30.519">
  <g id="experience" transform="translate(-35.405)">
    <path id="Контур_38" data-name="Контур 38" d="M61.551,18.935l-3.509-5.247a10.648,10.648,0,0,0-.689-3.219.894.894,0,0,0-.835-.574h-.94V7.153a.894.894,0,0,0-.894-.894H53.526q-.057-.147-.121-.292l.819-.819a.894.894,0,0,0,0-1.264L51.695,1.354a.894.894,0,0,0-1.264,0l-.819.819q-.145-.064-.292-.121V.894A.894.894,0,0,0,48.425,0H44.849a.894.894,0,0,0-.894.894V2.052q-.147.057-.292.121l-.819-.819a.894.894,0,0,0-1.264,0L39.05,3.883a.894.894,0,0,0,0,1.264l.819.819q-.064.145-.121.292H38.59a.894.894,0,0,0-.894.894V9.895h-.745a.894.894,0,0,0-.835.575,10.738,10.738,0,0,0,6.447,13.955v5.2a.894.894,0,0,0,.894.894H53.649a.894.894,0,0,0,.894-.894v-4.59h2.623a.894.894,0,0,0,.894-.894V20.326h2.748A.9.9,0,0,0,61.551,18.935ZM39.484,8.047h.905a.894.894,0,0,0,.86-.648,5.571,5.571,0,0,1,.488-1.176.894.894,0,0,0-.149-1.067l-.641-.641,1.264-1.264.641.64a.894.894,0,0,0,1.067.149,5.573,5.573,0,0,1,1.176-.488.894.894,0,0,0,.649-.86v-.9h1.788v.905a.894.894,0,0,0,.649.86,5.57,5.57,0,0,1,1.176.488.894.894,0,0,0,1.067-.149l.64-.64,1.265,1.264-.641.64a.894.894,0,0,0-.149,1.067A5.573,5.573,0,0,1,52.025,7.4a.894.894,0,0,0,.86.649h.905V9.895H50.084a3.576,3.576,0,1,0-6.893,0H39.484V8.047Zm5.641,1.848a1.788,1.788,0,1,1,3.024,0Zm12.042,8.643a.894.894,0,0,0-.894.894v3.815H53.649a.894.894,0,0,0-.894.894v4.59h-8.4v-4.96a.894.894,0,0,0-.651-.86,8.966,8.966,0,0,1-6.112-11.228H55.881a8.9,8.9,0,0,1,.385,2.323c.015.45.082.284,2.868,4.532Z" fill="#e3c819"/>
  </g>
</svg>
