<svg id="aim" xmlns="http://www.w3.org/2000/svg" width="29.208" height="29.208" viewBox="0 0 29.208 29.208">
  <path id="Контур_32" data-name="Контур 32" d="M14.17,26.34A12.17,12.17,0,1,1,26.34,14.17,12.184,12.184,0,0,1,14.17,26.34Zm0-22.515A10.345,10.345,0,1,0,24.515,14.17,10.356,10.356,0,0,0,14.17,3.826Z" transform="translate(0.434 0.434)" fill="#e3c819"/>
  <path id="Контур_33" data-name="Контур 33" d="M12.163,6.085a.913.913,0,0,1-.913-.913V.913a.913.913,0,0,1,1.826,0v4.26A.913.913,0,0,1,12.163,6.085Z" transform="translate(2.441)" fill="#e3c819"/>
  <path id="Контур_34" data-name="Контур 34" d="M24.172,13.076h-4.26a.913.913,0,0,1,0-1.826h4.26a.913.913,0,0,1,0,1.826Z" transform="translate(4.123 2.441)" fill="#e3c819"/>
  <path id="Контур_35" data-name="Контур 35" d="M12.163,25.085a.913.913,0,0,1-.913-.913v-4.26a.913.913,0,0,1,1.826,0v4.26A.913.913,0,0,1,12.163,25.085Z" transform="translate(2.441 4.123)" fill="#e3c819"/>
  <path id="Контур_36" data-name="Контур 36" d="M5.172,13.076H.913a.913.913,0,0,1,0-1.826h4.26a.913.913,0,0,1,0,1.826Z" transform="translate(0 2.441)" fill="#e3c819"/>
  <path id="Контур_37" data-name="Контур 37" d="M12.651,16.3A3.651,3.651,0,1,1,16.3,12.651,3.655,3.655,0,0,1,12.651,16.3Zm0-5.477a1.826,1.826,0,1,0,1.826,1.826A1.828,1.828,0,0,0,12.651,10.826Z" transform="translate(1.953 1.953)" fill="#e3c819"/>
</svg>
