<svg xmlns="http://www.w3.org/2000/svg" width="20.083" height="32.236" viewBox="0 0 20.083 32.236">
  <g id="light-bulb" transform="translate(-87.088 0)">
    <path id="Контур_30" data-name="Контур 30" d="M88.44,12.355A9.125,9.125,0,0,1,96.047,1.044.523.523,0,0,0,95.921,0,10.171,10.171,0,0,0,87.43,12.629q.245.471.642.368a.523.523,0,0,0,.368-.642Z" transform="translate(0 -0.001)" fill="#e3c819"/>
    <path id="Контур_31" data-name="Контур 31" d="M114.217,0a.523.523,0,0,0-.124,1.039A9,9,0,0,1,118.53,17.09a4.782,4.782,0,0,0-1.852,3.744,1.411,1.411,0,0,1-1.57,1.284V12.2h1.162a2.2,2.2,0,1,0,0-4.4h-.011a2.2,2.2,0,0,0-2.2,2.2v1.151h-2.093V10a2.2,2.2,0,0,0-2.2-2.2h-.011a2.2,2.2,0,0,0,0,4.4h1.162v9.92a1.41,1.41,0,0,1-1.57-1.284,4.7,4.7,0,0,0-1.81-3.711,8.981,8.981,0,0,1-2.39-2.764.523.523,0,1,0-.914.51,10.022,10.022,0,0,0,2.667,3.084,3.643,3.643,0,0,1,1.4,2.881,2.487,2.487,0,0,0,.785,1.744,2.225,2.225,0,0,0-.785,1.634,2.088,2.088,0,0,0,.71,1.569,2.234,2.234,0,0,0-.71,1.571,2.1,2.1,0,0,0,1.422,1.983,3.313,3.313,0,0,0,6.575,0,2.224,2.224,0,0,0,1.422-1.983,2.088,2.088,0,0,0-.71-1.569,2.232,2.232,0,0,0,.71-1.571,2.09,2.09,0,0,0-.787-1.634,2.325,2.325,0,0,0,.787-1.744,3.78,3.78,0,0,1,1.447-2.917A10.047,10.047,0,0,0,114.217,0Zm.891,10a1.153,1.153,0,0,1,1.151-1.151h.011a1.151,1.151,0,1,1,0,2.3h-1.162Zm-5.349,1.151a1.151,1.151,0,1,1,0-2.3h.011A1.153,1.153,0,0,1,110.922,10v1.151Zm2.209,1.047h2.093v9.92h-2.093Zm1.047,18.991a2.271,2.271,0,0,1-2.206-1.744h4.412A2.271,2.271,0,0,1,113.015,31.189Zm2.617-8.024a1.047,1.047,0,1,1,0,2.093h-.756a.523.523,0,1,0,0,1.047h.756a1.048,1.048,0,0,1,1.047,1.047,1.083,1.083,0,0,1-1.047,1.047H110.4a1.047,1.047,0,0,1,0-2.093h2.2a.523.523,0,1,0,0-1.047h-2.2a1.047,1.047,0,0,1,0-2.093Z" transform="translate(-15.891 0)" fill="#e3c819"/>
  </g>
</svg>
