<svg xmlns="http://www.w3.org/2000/svg" width="12.421" height="12.421" viewBox="0 0 12.421 12.421">
  <g id="_002---Phone" data-name="002---Phone" transform="translate(-62.982 0.33)">
    <path id="Shape" d="M23.387,22.441l-2.241-1.4a.345.345,0,0,0-.427.049l-.794.794a1.033,1.033,0,0,1-.9.291A5.733,5.733,0,0,1,15.964,20.5a5.733,5.733,0,0,1-1.678-3.063,1.031,1.031,0,0,1,.291-.9l.794-.794a.345.345,0,0,0,.049-.427l-1.4-2.24a.344.344,0,0,0-.447-.126l-2.252,1.126a.343.343,0,0,0-.189.345,12.246,12.246,0,0,0,3.7,7.211,12.244,12.244,0,0,0,7.211,3.7.345.345,0,0,0,.345-.189l1.126-2.252A.345.345,0,0,0,23.387,22.441Z" transform="translate(51.852 -13.241)" fill="#ffe500"/>
  </g>
</svg>
